<svg xmlns="http://www.w3.org/2000/svg" width="256" height="32" viewBox="0 0 256 32"><path d="m12.5 22.9c17.3 5.3 32.3 9.1 54 8.1 21.7-1 34.1-7 49.3-13.3 15.1-6.3 21.9-10.3 34.2-11.5 12.3-1.3 13.5 0.7 14.6 1.8 1.2 1.1 1.5 1.8 1.5 1.8 0 0-1.4 0.7-4.4 2.9-2.9 2.1 9.3 15.4 5.9 9.8 4.4-8.7 11.3-14.1 21.1-16.7 3.7-1 5.1-0.9 7.2-0.4 2.2 0.5 2.9 3.7 2.9 3.7 0 0-15 7.3-9.3 17.2 19.2-2.4 18.9-7.7 20.5-8.1-3.1-5.2-0.2-7.6 5.6-8.5 5.7-1.2 12.5-4.1 17.1-5.8-4.7-0.3-13.2 0.2-15.6-0.4 2.7 3.8 18.2 10.6 10 17.5-1.1 1-9.4 2-2.5 2.8 5.7 0.9 13.7 1.6 17.8-3.3 5.8-9.1-10.9-8.4-9.6-18.8-5.2-0.8-8.2-2.4-19.1 2.9-7.5 3.3-17.6 3-22.6 10.1-5.9 8.5-0.2 11.7 6.8 10.2 6.9-1.5 14-4.4 13.9-11.3-1.1-8-9.3-12.3-18-12.1-8.7 0.1-17.6 2.9-25.6 6.9-6.1 3.9-16.7 10-13.7 18.1 7.5 1.4 17.9 2 23.6-4.4C182.3 13.5 173 5 165.6 3.3 158.1 1.6 156.6 1.9 148.2 2.1 139.8 2.4 133.1 3.6 119.2 9.9 108.6 14.7 88.6 25.6 68.1 27.8 47.6 30 41.8 23.7 29.1 18.5c-4.1 2-12.1 4-16.6 4.4z" fill="#fff"/></svg>